<mxfile host="Electron" agent="Mozilla/5.0 (X11; Linux x86_64) AppleWebKit/537.36 (KHTML, like Gecko) draw.io/28.2.5 Chrome/138.0.7204.251 Electron/37.6.1 Safari/537.36" version="28.2.5" pages="4">
  <diagram id="5_ZrRclRmWIvPMUCUJZu" name="nodo">
    <mxGraphModel dx="1370" dy="843" grid="1" gridSize="10" guides="1" tooltips="1" connect="1" arrows="1" fold="1" page="1" pageScale="1" pageWidth="850" pageHeight="1100" math="0" shadow="0">
      <root>
        <mxCell id="0" />
        <mxCell id="1" parent="0" />
        <mxCell id="s6jIIKJ_Xm2M7ZIajcQt-1" value="" style="group" vertex="1" connectable="0" parent="1">
          <mxGeometry x="280" y="200" width="100" height="100" as="geometry" />
        </mxCell>
        <mxCell id="s6jIIKJ_Xm2M7ZIajcQt-2" value="" style="group;fontFamily=Cascadia Code;" vertex="1" connectable="0" parent="s6jIIKJ_Xm2M7ZIajcQt-1">
          <mxGeometry width="100" height="80" as="geometry" />
        </mxCell>
        <mxCell id="s6jIIKJ_Xm2M7ZIajcQt-3" value="&lt;font face=&quot;Cascadia Code&quot; color=&quot;#333333&quot;&gt;&lt;span style=&quot;font-size: 30px;&quot;&gt;Obj&lt;/span&gt;&lt;/font&gt;" style="rounded=0;whiteSpace=wrap;html=1;fillColor=#DFEAF2;" vertex="1" parent="s6jIIKJ_Xm2M7ZIajcQt-2">
          <mxGeometry width="80" height="80" as="geometry" />
        </mxCell>
        <mxCell id="s6jIIKJ_Xm2M7ZIajcQt-4" value="Next ID" style="rounded=0;fillColor=#DFEAF2;textDirection=vertical-rl;rotation=-180;labelPosition=center;verticalLabelPosition=middle;align=center;verticalAlign=middle;labelBackgroundColor=none;labelBorderColor=none;textShadow=0;html=1;whiteSpace=wrap;spacingLeft=0;spacingRight=2;fontFamily=Cascadia Code;fontColor=light-dark(#333333,#333333);fontSize=17;" vertex="1" parent="s6jIIKJ_Xm2M7ZIajcQt-2">
          <mxGeometry x="80" width="20" height="80" as="geometry" />
        </mxCell>
        <mxCell id="s6jIIKJ_Xm2M7ZIajcQt-5" value="&lt;font style=&quot;font-size: 17px;&quot;&gt;ID&lt;/font&gt;" style="text;html=1;align=center;verticalAlign=middle;whiteSpace=wrap;rounded=0;fontFamily=Cascadia Code;fontColor=light-dark(#333333,#333333);fontSize=18;" vertex="1" parent="s6jIIKJ_Xm2M7ZIajcQt-1">
          <mxGeometry y="80" width="80" height="20" as="geometry" />
        </mxCell>
      </root>
    </mxGraphModel>
  </diagram>
  <diagram id="-2mvVvXB5KLvDf1OCJHH" name="lista-enlazada">
    <mxGraphModel dx="1370" dy="843" grid="1" gridSize="10" guides="1" tooltips="1" connect="1" arrows="1" fold="1" page="1" pageScale="1" pageWidth="850" pageHeight="1100" math="0" shadow="0">
      <root>
        <mxCell id="0" />
        <mxCell id="1" parent="0" />
        <mxCell id="2ebjv52r4ttWwL_VnISV-11" value="" style="group" vertex="1" connectable="0" parent="1">
          <mxGeometry x="120" y="320" width="100" height="100" as="geometry" />
        </mxCell>
        <mxCell id="2ebjv52r4ttWwL_VnISV-3" value="" style="group;fontFamily=Cascadia Code;" vertex="1" connectable="0" parent="2ebjv52r4ttWwL_VnISV-11">
          <mxGeometry width="100" height="80" as="geometry" />
        </mxCell>
        <mxCell id="KylbMk_bheqT5-pd5vrS-1" value="&lt;font style=&quot;font-size: 30px; color: light-dark(rgb(51, 51, 51), rgb(51, 51, 51));&quot; face=&quot;Cascadia Code&quot;&gt;1&lt;/font&gt;" style="rounded=0;whiteSpace=wrap;html=1;fillColor=#DFEAF2;" vertex="1" parent="2ebjv52r4ttWwL_VnISV-3">
          <mxGeometry width="80" height="80" as="geometry" />
        </mxCell>
        <mxCell id="KylbMk_bheqT5-pd5vrS-2" value="1030" style="rounded=0;fillColor=#DFEAF2;textDirection=vertical-rl;rotation=-180;labelPosition=center;verticalLabelPosition=middle;align=center;verticalAlign=middle;labelBackgroundColor=none;labelBorderColor=none;textShadow=0;html=1;whiteSpace=wrap;spacingLeft=0;spacingRight=2;fontFamily=Cascadia Code;fontColor=light-dark(#333333,#333333);fontSize=17;" vertex="1" parent="2ebjv52r4ttWwL_VnISV-3">
          <mxGeometry x="80" width="20" height="80" as="geometry" />
        </mxCell>
        <mxCell id="2ebjv52r4ttWwL_VnISV-8" value="&lt;font style=&quot;font-size: 17px;&quot;&gt;1043&lt;/font&gt;" style="text;html=1;align=center;verticalAlign=middle;whiteSpace=wrap;rounded=0;fontFamily=Cascadia Code;fontColor=light-dark(#333333,#333333);fontSize=18;" vertex="1" parent="2ebjv52r4ttWwL_VnISV-11">
          <mxGeometry y="80" width="80" height="20" as="geometry" />
        </mxCell>
        <mxCell id="2ebjv52r4ttWwL_VnISV-12" value="" style="group" vertex="1" connectable="0" parent="1">
          <mxGeometry x="280" y="320" width="100" height="100" as="geometry" />
        </mxCell>
        <mxCell id="2ebjv52r4ttWwL_VnISV-13" value="" style="group;fontFamily=Cascadia Code;" vertex="1" connectable="0" parent="2ebjv52r4ttWwL_VnISV-12">
          <mxGeometry width="100" height="80" as="geometry" />
        </mxCell>
        <mxCell id="2ebjv52r4ttWwL_VnISV-14" value="&lt;font style=&quot;font-size: 30px; color: light-dark(rgb(51, 51, 51), rgb(51, 51, 51));&quot; face=&quot;Cascadia Code&quot;&gt;2&lt;/font&gt;" style="rounded=0;whiteSpace=wrap;html=1;fillColor=#DFEAF2;" vertex="1" parent="2ebjv52r4ttWwL_VnISV-13">
          <mxGeometry width="80" height="80" as="geometry" />
        </mxCell>
        <mxCell id="2ebjv52r4ttWwL_VnISV-15" value="1019" style="rounded=0;fillColor=#DFEAF2;textDirection=vertical-rl;rotation=-180;labelPosition=center;verticalLabelPosition=middle;align=center;verticalAlign=middle;labelBackgroundColor=none;labelBorderColor=none;textShadow=0;html=1;whiteSpace=wrap;spacingLeft=0;spacingRight=2;fontFamily=Cascadia Code;fontColor=light-dark(#333333,#333333);fontSize=17;" vertex="1" parent="2ebjv52r4ttWwL_VnISV-13">
          <mxGeometry x="80" width="20" height="80" as="geometry" />
        </mxCell>
        <mxCell id="2ebjv52r4ttWwL_VnISV-16" value="&lt;font style=&quot;font-size: 17px;&quot;&gt;1030&lt;/font&gt;" style="text;html=1;align=center;verticalAlign=middle;whiteSpace=wrap;rounded=0;fontFamily=Cascadia Code;fontColor=light-dark(#333333,#333333);fontSize=18;" vertex="1" parent="2ebjv52r4ttWwL_VnISV-12">
          <mxGeometry y="80" width="80" height="20" as="geometry" />
        </mxCell>
        <mxCell id="2ebjv52r4ttWwL_VnISV-17" value="" style="group" vertex="1" connectable="0" parent="1">
          <mxGeometry x="440" y="320" width="100" height="100" as="geometry" />
        </mxCell>
        <mxCell id="2ebjv52r4ttWwL_VnISV-18" value="" style="group;fontFamily=Cascadia Code;" vertex="1" connectable="0" parent="2ebjv52r4ttWwL_VnISV-17">
          <mxGeometry width="100" height="80" as="geometry" />
        </mxCell>
        <mxCell id="2ebjv52r4ttWwL_VnISV-19" value="&lt;font style=&quot;font-size: 30px; color: light-dark(rgb(51, 51, 51), rgb(51, 51, 51));&quot; face=&quot;Cascadia Code&quot;&gt;3&lt;/font&gt;" style="rounded=0;whiteSpace=wrap;html=1;fillColor=#DFEAF2;" vertex="1" parent="2ebjv52r4ttWwL_VnISV-18">
          <mxGeometry width="80" height="80" as="geometry" />
        </mxCell>
        <mxCell id="2ebjv52r4ttWwL_VnISV-20" value="1033" style="rounded=0;fillColor=#DFEAF2;textDirection=vertical-rl;rotation=-180;labelPosition=center;verticalLabelPosition=middle;align=center;verticalAlign=middle;labelBackgroundColor=none;labelBorderColor=none;textShadow=0;html=1;whiteSpace=wrap;spacingLeft=0;spacingRight=2;fontFamily=Cascadia Code;fontColor=light-dark(#333333,#333333);fontSize=17;" vertex="1" parent="2ebjv52r4ttWwL_VnISV-18">
          <mxGeometry x="80" width="20" height="80" as="geometry" />
        </mxCell>
        <mxCell id="2ebjv52r4ttWwL_VnISV-21" value="&lt;font style=&quot;font-size: 17px;&quot;&gt;1019&lt;/font&gt;" style="text;html=1;align=center;verticalAlign=middle;whiteSpace=wrap;rounded=0;fontFamily=Cascadia Code;fontColor=light-dark(#333333,#333333);fontSize=18;" vertex="1" parent="2ebjv52r4ttWwL_VnISV-17">
          <mxGeometry y="80" width="80" height="20" as="geometry" />
        </mxCell>
        <mxCell id="2ebjv52r4ttWwL_VnISV-22" value="" style="group" vertex="1" connectable="0" parent="1">
          <mxGeometry x="600" y="320" width="100" height="100" as="geometry" />
        </mxCell>
        <mxCell id="2ebjv52r4ttWwL_VnISV-23" value="" style="group;fontFamily=Cascadia Code;" vertex="1" connectable="0" parent="2ebjv52r4ttWwL_VnISV-22">
          <mxGeometry width="100" height="80" as="geometry" />
        </mxCell>
        <mxCell id="2ebjv52r4ttWwL_VnISV-24" value="&lt;font style=&quot;font-size: 30px; color: light-dark(rgb(51, 51, 51), rgb(51, 51, 51));&quot; face=&quot;Cascadia Code&quot;&gt;4&lt;/font&gt;" style="rounded=0;whiteSpace=wrap;html=1;fillColor=#DFEAF2;" vertex="1" parent="2ebjv52r4ttWwL_VnISV-23">
          <mxGeometry width="80" height="80" as="geometry" />
        </mxCell>
        <mxCell id="2ebjv52r4ttWwL_VnISV-25" value="None" style="rounded=0;fillColor=#DFEAF2;textDirection=vertical-rl;rotation=-180;labelPosition=center;verticalLabelPosition=middle;align=center;verticalAlign=middle;labelBackgroundColor=none;labelBorderColor=none;textShadow=0;html=1;whiteSpace=wrap;spacingLeft=0;spacingRight=2;fontFamily=Cascadia Code;fontColor=light-dark(#333333,#333333);fontSize=17;" vertex="1" parent="2ebjv52r4ttWwL_VnISV-23">
          <mxGeometry x="80" width="20" height="80" as="geometry" />
        </mxCell>
        <mxCell id="2ebjv52r4ttWwL_VnISV-26" value="&lt;font style=&quot;font-size: 17px;&quot;&gt;1033&lt;/font&gt;" style="text;html=1;align=center;verticalAlign=middle;whiteSpace=wrap;rounded=0;fontFamily=Cascadia Code;fontColor=light-dark(#333333,#333333);fontSize=18;" vertex="1" parent="2ebjv52r4ttWwL_VnISV-22">
          <mxGeometry y="80" width="80" height="20" as="geometry" />
        </mxCell>
        <mxCell id="2ebjv52r4ttWwL_VnISV-28" value="" style="endArrow=classic;html=1;rounded=0;entryX=0.5;entryY=0;entryDx=0;entryDy=0;curved=1;strokeWidth=2;strokeColor=light-dark(#333333,#333333);" edge="1" parent="1">
          <mxGeometry width="50" height="50" relative="1" as="geometry">
            <mxPoint x="370" y="310" as="sourcePoint" />
            <mxPoint x="480" y="310" as="targetPoint" />
            <Array as="points">
              <mxPoint x="420" y="260" />
            </Array>
          </mxGeometry>
        </mxCell>
        <mxCell id="2ebjv52r4ttWwL_VnISV-30" value="" style="endArrow=classic;html=1;rounded=0;entryX=0.5;entryY=0;entryDx=0;entryDy=0;curved=1;strokeWidth=2;strokeColor=light-dark(#333333,#333333);" edge="1" parent="1">
          <mxGeometry width="50" height="50" relative="1" as="geometry">
            <mxPoint x="210" y="310" as="sourcePoint" />
            <mxPoint x="320" y="310" as="targetPoint" />
            <Array as="points">
              <mxPoint x="260" y="260" />
            </Array>
          </mxGeometry>
        </mxCell>
        <mxCell id="2ebjv52r4ttWwL_VnISV-31" value="" style="endArrow=classic;html=1;rounded=0;entryX=0.5;entryY=0;entryDx=0;entryDy=0;curved=1;strokeWidth=2;strokeColor=light-dark(#333333,#333333);" edge="1" parent="1">
          <mxGeometry width="50" height="50" relative="1" as="geometry">
            <mxPoint x="530" y="310" as="sourcePoint" />
            <mxPoint x="640" y="310" as="targetPoint" />
            <Array as="points">
              <mxPoint x="580" y="260" />
            </Array>
          </mxGeometry>
        </mxCell>
      </root>
    </mxGraphModel>
  </diagram>
  <diagram name="memoria" id="ZPMzpRSuOXshA58DwNnf">
    <mxGraphModel dx="1370" dy="843" grid="1" gridSize="10" guides="1" tooltips="1" connect="1" arrows="1" fold="1" page="1" pageScale="1" pageWidth="850" pageHeight="1100" math="0" shadow="0">
      <root>
        <mxCell id="0" />
        <mxCell id="1" parent="0" />
        <mxCell id="STWKXYfasMwh-d02zz8T-1" value="" style="rounded=0;whiteSpace=wrap;html=1;strokeWidth=1;fillColor=#DFEAF2;" vertex="1" parent="1">
          <mxGeometry x="120" y="280" width="80" height="80" as="geometry" />
        </mxCell>
        <mxCell id="STWKXYfasMwh-d02zz8T-2" value="" style="rounded=0;whiteSpace=wrap;html=1;strokeWidth=1;fillColor=#DFEAF2;" vertex="1" parent="1">
          <mxGeometry x="200" y="280" width="80" height="80" as="geometry" />
        </mxCell>
        <mxCell id="STWKXYfasMwh-d02zz8T-3" value="" style="rounded=0;whiteSpace=wrap;html=1;strokeWidth=1;fillColor=#DFEAF2;" vertex="1" parent="1">
          <mxGeometry x="280" y="280" width="80" height="80" as="geometry" />
        </mxCell>
        <mxCell id="STWKXYfasMwh-d02zz8T-4" value="" style="rounded=0;whiteSpace=wrap;html=1;strokeWidth=1;fillColor=#DFEAF2;" vertex="1" parent="1">
          <mxGeometry x="360" y="280" width="80" height="80" as="geometry" />
        </mxCell>
        <mxCell id="STWKXYfasMwh-d02zz8T-5" value="" style="rounded=0;whiteSpace=wrap;html=1;strokeWidth=1;fillColor=#DFEAF2;" vertex="1" parent="1">
          <mxGeometry x="440" y="280" width="80" height="80" as="geometry" />
        </mxCell>
        <mxCell id="STWKXYfasMwh-d02zz8T-6" value="&lt;font face=&quot;Cascadia Code&quot; color=&quot;#4d4d4d&quot;&gt;&lt;span style=&quot;font-size: 30px;&quot;&gt;21&lt;/span&gt;&lt;/font&gt;" style="rounded=0;whiteSpace=wrap;html=1;strokeWidth=1;fillColor=#DFEAF2;" vertex="1" parent="1">
          <mxGeometry x="520" y="280" width="80" height="80" as="geometry" />
        </mxCell>
        <mxCell id="STWKXYfasMwh-d02zz8T-7" value="" style="rounded=0;whiteSpace=wrap;html=1;strokeWidth=1;fillColor=#DFEAF2;" vertex="1" parent="1">
          <mxGeometry x="600" y="280" width="80" height="80" as="geometry" />
        </mxCell>
        <mxCell id="STWKXYfasMwh-d02zz8T-8" value="" style="rounded=0;whiteSpace=wrap;html=1;strokeWidth=1;fillColor=#DFEAF2;" vertex="1" parent="1">
          <mxGeometry x="680" y="280" width="80" height="80" as="geometry" />
        </mxCell>
        <mxCell id="STWKXYfasMwh-d02zz8T-9" value="" style="rounded=0;whiteSpace=wrap;html=1;strokeWidth=1;fillColor=#DFEAF2;" vertex="1" parent="1">
          <mxGeometry x="120" y="360" width="80" height="80" as="geometry" />
        </mxCell>
        <mxCell id="STWKXYfasMwh-d02zz8T-11" value="" style="rounded=0;whiteSpace=wrap;html=1;strokeWidth=1;fillColor=#DFEAF2;" vertex="1" parent="1">
          <mxGeometry x="280" y="360" width="80" height="80" as="geometry" />
        </mxCell>
        <mxCell id="STWKXYfasMwh-d02zz8T-12" value="" style="rounded=0;whiteSpace=wrap;html=1;strokeWidth=1;fillColor=#DFEAF2;" vertex="1" parent="1">
          <mxGeometry x="360" y="360" width="80" height="80" as="geometry" />
        </mxCell>
        <mxCell id="STWKXYfasMwh-d02zz8T-13" value="" style="rounded=0;whiteSpace=wrap;html=1;strokeWidth=1;fillColor=#DFEAF2;" vertex="1" parent="1">
          <mxGeometry x="440" y="360" width="80" height="80" as="geometry" />
        </mxCell>
        <mxCell id="STWKXYfasMwh-d02zz8T-14" value="" style="rounded=0;whiteSpace=wrap;html=1;strokeWidth=1;fillColor=#DFEAF2;" vertex="1" parent="1">
          <mxGeometry x="520" y="360" width="80" height="80" as="geometry" />
        </mxCell>
        <mxCell id="STWKXYfasMwh-d02zz8T-15" value="" style="rounded=0;whiteSpace=wrap;html=1;strokeWidth=1;fillColor=#DFEAF2;" vertex="1" parent="1">
          <mxGeometry x="600" y="360" width="80" height="80" as="geometry" />
        </mxCell>
        <mxCell id="STWKXYfasMwh-d02zz8T-16" value="" style="rounded=0;whiteSpace=wrap;html=1;strokeWidth=1;fillColor=#DFEAF2;" vertex="1" parent="1">
          <mxGeometry x="680" y="360" width="80" height="80" as="geometry" />
        </mxCell>
        <mxCell id="STWKXYfasMwh-d02zz8T-17" value="" style="rounded=0;whiteSpace=wrap;html=1;strokeWidth=1;fillColor=#DFEAF2;" vertex="1" parent="1">
          <mxGeometry x="120" y="440" width="80" height="80" as="geometry" />
        </mxCell>
        <mxCell id="STWKXYfasMwh-d02zz8T-18" value="" style="rounded=0;whiteSpace=wrap;html=1;strokeWidth=1;fillColor=#DFEAF2;" vertex="1" parent="1">
          <mxGeometry x="200" y="440" width="80" height="80" as="geometry" />
        </mxCell>
        <mxCell id="STWKXYfasMwh-d02zz8T-19" value="" style="rounded=0;whiteSpace=wrap;html=1;strokeWidth=1;fillColor=#DFEAF2;" vertex="1" parent="1">
          <mxGeometry x="280" y="440" width="80" height="80" as="geometry" />
        </mxCell>
        <mxCell id="STWKXYfasMwh-d02zz8T-20" value="" style="rounded=0;whiteSpace=wrap;html=1;strokeWidth=1;fillColor=#DFEAF2;" vertex="1" parent="1">
          <mxGeometry x="360" y="440" width="80" height="80" as="geometry" />
        </mxCell>
        <mxCell id="STWKXYfasMwh-d02zz8T-22" value="" style="rounded=0;whiteSpace=wrap;html=1;strokeWidth=1;fillColor=#DFEAF2;" vertex="1" parent="1">
          <mxGeometry x="520" y="440" width="80" height="80" as="geometry" />
        </mxCell>
        <mxCell id="STWKXYfasMwh-d02zz8T-23" value="" style="rounded=0;whiteSpace=wrap;html=1;strokeWidth=1;fillColor=#DFEAF2;" vertex="1" parent="1">
          <mxGeometry x="600" y="440" width="80" height="80" as="geometry" />
        </mxCell>
        <mxCell id="STWKXYfasMwh-d02zz8T-25" value="" style="rounded=0;whiteSpace=wrap;html=1;strokeWidth=1;fillColor=#DFEAF2;" vertex="1" parent="1">
          <mxGeometry x="120" y="520" width="80" height="80" as="geometry" />
        </mxCell>
        <mxCell id="STWKXYfasMwh-d02zz8T-26" value="" style="rounded=0;whiteSpace=wrap;html=1;strokeWidth=1;fillColor=#DFEAF2;" vertex="1" parent="1">
          <mxGeometry x="200" y="520" width="80" height="80" as="geometry" />
        </mxCell>
        <mxCell id="STWKXYfasMwh-d02zz8T-27" value="" style="rounded=0;whiteSpace=wrap;html=1;strokeWidth=1;fillColor=#DFEAF2;" vertex="1" parent="1">
          <mxGeometry x="280" y="520" width="80" height="80" as="geometry" />
        </mxCell>
        <mxCell id="STWKXYfasMwh-d02zz8T-28" value="" style="rounded=0;whiteSpace=wrap;html=1;strokeWidth=1;fillColor=#DFEAF2;" vertex="1" parent="1">
          <mxGeometry x="360" y="520" width="80" height="80" as="geometry" />
        </mxCell>
        <mxCell id="STWKXYfasMwh-d02zz8T-29" value="" style="rounded=0;whiteSpace=wrap;html=1;strokeWidth=1;fillColor=#DFEAF2;" vertex="1" parent="1">
          <mxGeometry x="440" y="520" width="80" height="80" as="geometry" />
        </mxCell>
        <mxCell id="STWKXYfasMwh-d02zz8T-30" value="" style="rounded=0;whiteSpace=wrap;html=1;strokeWidth=1;fillColor=#DFEAF2;" vertex="1" parent="1">
          <mxGeometry x="520" y="520" width="80" height="80" as="geometry" />
        </mxCell>
        <mxCell id="STWKXYfasMwh-d02zz8T-31" value="" style="rounded=0;whiteSpace=wrap;html=1;strokeWidth=1;fillColor=#DFEAF2;" vertex="1" parent="1">
          <mxGeometry x="600" y="520" width="80" height="80" as="geometry" />
        </mxCell>
        <mxCell id="STWKXYfasMwh-d02zz8T-32" value="&lt;font face=&quot;Cascadia Code&quot; color=&quot;#4d4d4d&quot;&gt;&lt;span style=&quot;font-size: 20px;&quot;&gt;Object&lt;/span&gt;&lt;/font&gt;" style="rounded=0;whiteSpace=wrap;html=1;strokeWidth=1;fillColor=#DFEAF2;" vertex="1" parent="1">
          <mxGeometry x="680" y="520" width="80" height="80" as="geometry" />
        </mxCell>
        <mxCell id="STWKXYfasMwh-d02zz8T-33" value="" style="rounded=0;whiteSpace=wrap;html=1;strokeWidth=1;fillColor=#DFEAF2;" vertex="1" parent="1">
          <mxGeometry x="120" y="600" width="80" height="80" as="geometry" />
        </mxCell>
        <mxCell id="STWKXYfasMwh-d02zz8T-35" value="" style="rounded=0;whiteSpace=wrap;html=1;strokeWidth=1;fillColor=#DFEAF2;" vertex="1" parent="1">
          <mxGeometry x="280" y="600" width="80" height="80" as="geometry" />
        </mxCell>
        <mxCell id="STWKXYfasMwh-d02zz8T-36" value="" style="rounded=0;whiteSpace=wrap;html=1;strokeWidth=1;fillColor=#DFEAF2;" vertex="1" parent="1">
          <mxGeometry x="360" y="600" width="80" height="80" as="geometry" />
        </mxCell>
        <mxCell id="STWKXYfasMwh-d02zz8T-37" value="" style="rounded=0;whiteSpace=wrap;html=1;strokeWidth=1;fillColor=#DFEAF2;" vertex="1" parent="1">
          <mxGeometry x="440" y="600" width="80" height="80" as="geometry" />
        </mxCell>
        <mxCell id="STWKXYfasMwh-d02zz8T-38" value="&lt;span style=&quot;color: rgb(77, 77, 77); font-family: &amp;quot;Cascadia Code&amp;quot;;&quot;&gt;&lt;font style=&quot;font-size: 20px;&quot;&gt;&quot;hola&quot;&lt;/font&gt;&lt;/span&gt;" style="rounded=0;whiteSpace=wrap;html=1;strokeWidth=1;fillColor=#DFEAF2;" vertex="1" parent="1">
          <mxGeometry x="520" y="600" width="80" height="80" as="geometry" />
        </mxCell>
        <mxCell id="STWKXYfasMwh-d02zz8T-39" value="" style="rounded=0;whiteSpace=wrap;html=1;strokeWidth=1;fillColor=#DFEAF2;" vertex="1" parent="1">
          <mxGeometry x="600" y="600" width="80" height="80" as="geometry" />
        </mxCell>
        <mxCell id="STWKXYfasMwh-d02zz8T-40" value="" style="rounded=0;whiteSpace=wrap;html=1;strokeWidth=1;fillColor=#DFEAF2;" vertex="1" parent="1">
          <mxGeometry x="680" y="600" width="80" height="80" as="geometry" />
        </mxCell>
        <mxCell id="STWKXYfasMwh-d02zz8T-41" value="&lt;span style=&quot;color: rgb(77, 77, 77); font-family: &amp;quot;Cascadia Code&amp;quot;; font-size: 30px;&quot;&gt;12&lt;/span&gt;" style="rounded=0;whiteSpace=wrap;html=1;strokeWidth=1;fillColor=#DFEAF2;" vertex="1" parent="1">
          <mxGeometry x="120" y="680" width="80" height="80" as="geometry" />
        </mxCell>
        <mxCell id="STWKXYfasMwh-d02zz8T-42" value="" style="rounded=0;whiteSpace=wrap;html=1;strokeWidth=1;fillColor=#DFEAF2;" vertex="1" parent="1">
          <mxGeometry x="200" y="680" width="80" height="80" as="geometry" />
        </mxCell>
        <mxCell id="STWKXYfasMwh-d02zz8T-43" value="" style="rounded=0;whiteSpace=wrap;html=1;strokeWidth=1;fillColor=#DFEAF2;" vertex="1" parent="1">
          <mxGeometry x="280" y="680" width="80" height="80" as="geometry" />
        </mxCell>
        <mxCell id="STWKXYfasMwh-d02zz8T-44" value="&lt;span style=&quot;color: rgb(77, 77, 77); font-family: &amp;quot;Cascadia Code&amp;quot;; font-size: 20px;&quot;&gt;&quot;rand&quot;&lt;/span&gt;" style="rounded=0;whiteSpace=wrap;html=1;strokeWidth=1;fillColor=#DFEAF2;" vertex="1" parent="1">
          <mxGeometry x="360" y="680" width="80" height="80" as="geometry" />
        </mxCell>
        <mxCell id="STWKXYfasMwh-d02zz8T-45" value="" style="rounded=0;whiteSpace=wrap;html=1;strokeWidth=1;fillColor=#DFEAF2;" vertex="1" parent="1">
          <mxGeometry x="440" y="680" width="80" height="80" as="geometry" />
        </mxCell>
        <mxCell id="STWKXYfasMwh-d02zz8T-46" value="" style="rounded=0;whiteSpace=wrap;html=1;strokeWidth=1;fillColor=#DFEAF2;" vertex="1" parent="1">
          <mxGeometry x="520" y="680" width="80" height="80" as="geometry" />
        </mxCell>
        <mxCell id="STWKXYfasMwh-d02zz8T-47" value="" style="rounded=0;whiteSpace=wrap;html=1;strokeWidth=1;fillColor=#DFEAF2;" vertex="1" parent="1">
          <mxGeometry x="600" y="680" width="80" height="80" as="geometry" />
        </mxCell>
        <mxCell id="STWKXYfasMwh-d02zz8T-48" value="&lt;font face=&quot;Cascadia Code&quot; color=&quot;#4d4d4d&quot;&gt;&lt;span style=&quot;font-size: 30px;&quot;&gt;100&lt;/span&gt;&lt;/font&gt;" style="rounded=0;whiteSpace=wrap;html=1;strokeWidth=1;fillColor=#DFEAF2;" vertex="1" parent="1">
          <mxGeometry x="680" y="680" width="80" height="80" as="geometry" />
        </mxCell>
        <mxCell id="STWKXYfasMwh-d02zz8T-10" value="&lt;span style=&quot;color: rgb(77, 77, 77); font-family: &amp;quot;Cascadia Code&amp;quot;; font-size: 30px;&quot;&gt;3&lt;/span&gt;" style="rounded=0;whiteSpace=wrap;html=1;strokeWidth=3;fillColor=#F8CECC;strokeColor=#B85450;" vertex="1" parent="1">
          <mxGeometry x="200" y="360" width="80" height="80" as="geometry" />
        </mxCell>
        <mxCell id="STWKXYfasMwh-d02zz8T-52" value="&lt;span style=&quot;color: rgb(77, 77, 77); font-family: &amp;quot;Cascadia Code&amp;quot;; font-size: 30px;&quot;&gt;2&lt;/span&gt;" style="rounded=0;whiteSpace=wrap;html=1;strokeWidth=3;fillColor=#F8CECC;strokeColor=#B85450;" vertex="1" parent="1">
          <mxGeometry x="440" y="440" width="80" height="80" as="geometry" />
        </mxCell>
        <mxCell id="STWKXYfasMwh-d02zz8T-54" value="&lt;span style=&quot;color: rgb(77, 77, 77); font-family: &amp;quot;Cascadia Code&amp;quot;; font-size: 30px;&quot;&gt;1&lt;/span&gt;" style="rounded=0;whiteSpace=wrap;html=1;strokeWidth=3;fillColor=#F8CECC;strokeColor=#B85450;" vertex="1" parent="1">
          <mxGeometry x="200" y="600" width="80" height="80" as="geometry" />
        </mxCell>
        <mxCell id="STWKXYfasMwh-d02zz8T-55" value="&lt;span style=&quot;color: rgb(77, 77, 77); font-family: &amp;quot;Cascadia Code&amp;quot;; font-size: 30px;&quot;&gt;4&lt;/span&gt;" style="rounded=0;whiteSpace=wrap;html=1;strokeWidth=3;fillColor=#F8CECC;strokeColor=#B85450;" vertex="1" parent="1">
          <mxGeometry x="680" y="440" width="80" height="80" as="geometry" />
        </mxCell>
      </root>
    </mxGraphModel>
  </diagram>
  <diagram id="vZNSvEZUGthEUn3Td-2y" name="Page-4">
    <mxGraphModel dx="1370" dy="843" grid="1" gridSize="10" guides="1" tooltips="1" connect="1" arrows="1" fold="1" page="1" pageScale="1" pageWidth="850" pageHeight="1100" math="0" shadow="0">
      <root>
        <mxCell id="0" />
        <mxCell id="1" parent="0" />
        <mxCell id="RnPzxvu8OwdiuVJb5Kx--1" value="" style="rounded=0;whiteSpace=wrap;html=1;strokeWidth=1;fillColor=#DFEAF2;" vertex="1" parent="1">
          <mxGeometry x="130" y="190" width="80" height="80" as="geometry" />
        </mxCell>
        <mxCell id="RnPzxvu8OwdiuVJb5Kx--2" value="" style="rounded=0;whiteSpace=wrap;html=1;strokeWidth=1;fillColor=#DFEAF2;" vertex="1" parent="1">
          <mxGeometry x="210" y="190" width="80" height="80" as="geometry" />
        </mxCell>
        <mxCell id="RnPzxvu8OwdiuVJb5Kx--3" value="" style="rounded=0;whiteSpace=wrap;html=1;strokeWidth=1;fillColor=#DFEAF2;" vertex="1" parent="1">
          <mxGeometry x="290" y="190" width="80" height="80" as="geometry" />
        </mxCell>
        <mxCell id="RnPzxvu8OwdiuVJb5Kx--4" value="" style="rounded=0;whiteSpace=wrap;html=1;strokeWidth=1;fillColor=#DFEAF2;" vertex="1" parent="1">
          <mxGeometry x="370" y="190" width="80" height="80" as="geometry" />
        </mxCell>
        <mxCell id="RnPzxvu8OwdiuVJb5Kx--5" value="" style="rounded=0;whiteSpace=wrap;html=1;strokeWidth=1;fillColor=#DFEAF2;" vertex="1" parent="1">
          <mxGeometry x="450" y="190" width="80" height="80" as="geometry" />
        </mxCell>
        <mxCell id="RnPzxvu8OwdiuVJb5Kx--6" value="&lt;span style=&quot;color: rgb(77, 77, 77); font-family: &amp;quot;Cascadia Code&amp;quot;; font-size: 30px;&quot;&gt;?&lt;/span&gt;" style="rounded=0;whiteSpace=wrap;html=1;strokeWidth=1;fillColor=#DFEAF2;" vertex="1" parent="1">
          <mxGeometry x="530" y="190" width="80" height="80" as="geometry" />
        </mxCell>
        <mxCell id="RnPzxvu8OwdiuVJb5Kx--7" value="" style="rounded=0;whiteSpace=wrap;html=1;strokeWidth=1;fillColor=#DFEAF2;" vertex="1" parent="1">
          <mxGeometry x="610" y="190" width="80" height="80" as="geometry" />
        </mxCell>
        <mxCell id="RnPzxvu8OwdiuVJb5Kx--8" value="" style="rounded=0;whiteSpace=wrap;html=1;strokeWidth=1;fillColor=#DFEAF2;" vertex="1" parent="1">
          <mxGeometry x="690" y="190" width="80" height="80" as="geometry" />
        </mxCell>
        <mxCell id="RnPzxvu8OwdiuVJb5Kx--9" value="" style="rounded=0;whiteSpace=wrap;html=1;strokeWidth=1;fillColor=#DFEAF2;" vertex="1" parent="1">
          <mxGeometry x="130" y="270" width="80" height="80" as="geometry" />
        </mxCell>
        <mxCell id="RnPzxvu8OwdiuVJb5Kx--10" value="" style="rounded=0;whiteSpace=wrap;html=1;strokeWidth=1;fillColor=#DFEAF2;" vertex="1" parent="1">
          <mxGeometry x="290" y="270" width="80" height="80" as="geometry" />
        </mxCell>
        <mxCell id="RnPzxvu8OwdiuVJb5Kx--11" value="" style="rounded=0;whiteSpace=wrap;html=1;strokeWidth=1;fillColor=#DFEAF2;" vertex="1" parent="1">
          <mxGeometry x="370" y="270" width="80" height="80" as="geometry" />
        </mxCell>
        <mxCell id="RnPzxvu8OwdiuVJb5Kx--12" value="" style="rounded=0;whiteSpace=wrap;html=1;strokeWidth=1;fillColor=#DFEAF2;" vertex="1" parent="1">
          <mxGeometry x="450" y="270" width="80" height="80" as="geometry" />
        </mxCell>
        <mxCell id="RnPzxvu8OwdiuVJb5Kx--13" value="" style="rounded=0;whiteSpace=wrap;html=1;strokeWidth=1;fillColor=#DFEAF2;" vertex="1" parent="1">
          <mxGeometry x="530" y="270" width="80" height="80" as="geometry" />
        </mxCell>
        <mxCell id="RnPzxvu8OwdiuVJb5Kx--14" value="" style="rounded=0;whiteSpace=wrap;html=1;strokeWidth=1;fillColor=#DFEAF2;" vertex="1" parent="1">
          <mxGeometry x="610" y="270" width="80" height="80" as="geometry" />
        </mxCell>
        <mxCell id="RnPzxvu8OwdiuVJb5Kx--15" value="" style="rounded=0;whiteSpace=wrap;html=1;strokeWidth=1;fillColor=#DFEAF2;" vertex="1" parent="1">
          <mxGeometry x="690" y="270" width="80" height="80" as="geometry" />
        </mxCell>
        <mxCell id="RnPzxvu8OwdiuVJb5Kx--16" value="" style="rounded=0;whiteSpace=wrap;html=1;strokeWidth=1;fillColor=#DFEAF2;" vertex="1" parent="1">
          <mxGeometry x="130" y="350" width="80" height="80" as="geometry" />
        </mxCell>
        <mxCell id="RnPzxvu8OwdiuVJb5Kx--17" value="" style="rounded=0;whiteSpace=wrap;html=1;strokeWidth=1;fillColor=#DFEAF2;" vertex="1" parent="1">
          <mxGeometry x="210" y="350" width="80" height="80" as="geometry" />
        </mxCell>
        <mxCell id="RnPzxvu8OwdiuVJb5Kx--18" value="" style="rounded=0;whiteSpace=wrap;html=1;strokeWidth=1;fillColor=#DFEAF2;" vertex="1" parent="1">
          <mxGeometry x="290" y="350" width="80" height="80" as="geometry" />
        </mxCell>
        <mxCell id="RnPzxvu8OwdiuVJb5Kx--19" value="" style="rounded=0;whiteSpace=wrap;html=1;strokeWidth=1;fillColor=#DFEAF2;" vertex="1" parent="1">
          <mxGeometry x="370" y="350" width="80" height="80" as="geometry" />
        </mxCell>
        <mxCell id="RnPzxvu8OwdiuVJb5Kx--20" value="" style="rounded=0;whiteSpace=wrap;html=1;strokeWidth=1;fillColor=#DFEAF2;" vertex="1" parent="1">
          <mxGeometry x="530" y="350" width="80" height="80" as="geometry" />
        </mxCell>
        <mxCell id="RnPzxvu8OwdiuVJb5Kx--21" value="" style="rounded=0;whiteSpace=wrap;html=1;strokeWidth=1;fillColor=#DFEAF2;" vertex="1" parent="1">
          <mxGeometry x="610" y="350" width="80" height="80" as="geometry" />
        </mxCell>
        <mxCell id="RnPzxvu8OwdiuVJb5Kx--22" value="" style="rounded=0;whiteSpace=wrap;html=1;strokeWidth=1;fillColor=#DFEAF2;" vertex="1" parent="1">
          <mxGeometry x="130" y="430" width="80" height="80" as="geometry" />
        </mxCell>
        <mxCell id="RnPzxvu8OwdiuVJb5Kx--23" value="" style="rounded=0;whiteSpace=wrap;html=1;strokeWidth=1;fillColor=#DFEAF2;" vertex="1" parent="1">
          <mxGeometry x="210" y="430" width="80" height="80" as="geometry" />
        </mxCell>
        <mxCell id="RnPzxvu8OwdiuVJb5Kx--24" value="" style="rounded=0;whiteSpace=wrap;html=1;strokeWidth=1;fillColor=#DFEAF2;" vertex="1" parent="1">
          <mxGeometry x="290" y="430" width="80" height="80" as="geometry" />
        </mxCell>
        <mxCell id="RnPzxvu8OwdiuVJb5Kx--25" value="" style="rounded=0;whiteSpace=wrap;html=1;strokeWidth=1;fillColor=#DFEAF2;" vertex="1" parent="1">
          <mxGeometry x="370" y="430" width="80" height="80" as="geometry" />
        </mxCell>
        <mxCell id="RnPzxvu8OwdiuVJb5Kx--26" value="" style="rounded=0;whiteSpace=wrap;html=1;strokeWidth=1;fillColor=#DFEAF2;" vertex="1" parent="1">
          <mxGeometry x="450" y="430" width="80" height="80" as="geometry" />
        </mxCell>
        <mxCell id="RnPzxvu8OwdiuVJb5Kx--27" value="" style="rounded=0;whiteSpace=wrap;html=1;strokeWidth=1;fillColor=#DFEAF2;" vertex="1" parent="1">
          <mxGeometry x="530" y="430" width="80" height="80" as="geometry" />
        </mxCell>
        <mxCell id="RnPzxvu8OwdiuVJb5Kx--28" value="" style="rounded=0;whiteSpace=wrap;html=1;strokeWidth=1;fillColor=#DFEAF2;" vertex="1" parent="1">
          <mxGeometry x="610" y="430" width="80" height="80" as="geometry" />
        </mxCell>
        <mxCell id="RnPzxvu8OwdiuVJb5Kx--29" value="&lt;span style=&quot;color: rgb(77, 77, 77); font-family: &amp;quot;Cascadia Code&amp;quot;; font-size: 30px;&quot;&gt;?&lt;/span&gt;" style="rounded=0;whiteSpace=wrap;html=1;strokeWidth=1;fillColor=#DFEAF2;" vertex="1" parent="1">
          <mxGeometry x="690" y="430" width="80" height="80" as="geometry" />
        </mxCell>
        <mxCell id="RnPzxvu8OwdiuVJb5Kx--30" value="" style="rounded=0;whiteSpace=wrap;html=1;strokeWidth=1;fillColor=#DFEAF2;" vertex="1" parent="1">
          <mxGeometry x="130" y="510" width="80" height="80" as="geometry" />
        </mxCell>
        <mxCell id="RnPzxvu8OwdiuVJb5Kx--31" value="" style="rounded=0;whiteSpace=wrap;html=1;strokeWidth=1;fillColor=#DFEAF2;" vertex="1" parent="1">
          <mxGeometry x="290" y="510" width="80" height="80" as="geometry" />
        </mxCell>
        <mxCell id="RnPzxvu8OwdiuVJb5Kx--32" value="" style="rounded=0;whiteSpace=wrap;html=1;strokeWidth=1;fillColor=#DFEAF2;" vertex="1" parent="1">
          <mxGeometry x="370" y="510" width="80" height="80" as="geometry" />
        </mxCell>
        <mxCell id="RnPzxvu8OwdiuVJb5Kx--33" value="" style="rounded=0;whiteSpace=wrap;html=1;strokeWidth=1;fillColor=#DFEAF2;" vertex="1" parent="1">
          <mxGeometry x="450" y="510" width="80" height="80" as="geometry" />
        </mxCell>
        <mxCell id="RnPzxvu8OwdiuVJb5Kx--34" value="&lt;span style=&quot;color: rgb(77, 77, 77); font-family: &amp;quot;Cascadia Code&amp;quot;; font-size: 30px;&quot;&gt;?&lt;/span&gt;" style="rounded=0;whiteSpace=wrap;html=1;strokeWidth=1;fillColor=#DFEAF2;" vertex="1" parent="1">
          <mxGeometry x="530" y="510" width="80" height="80" as="geometry" />
        </mxCell>
        <mxCell id="RnPzxvu8OwdiuVJb5Kx--35" value="" style="rounded=0;whiteSpace=wrap;html=1;strokeWidth=1;fillColor=#DFEAF2;" vertex="1" parent="1">
          <mxGeometry x="610" y="510" width="80" height="80" as="geometry" />
        </mxCell>
        <mxCell id="RnPzxvu8OwdiuVJb5Kx--36" value="" style="rounded=0;whiteSpace=wrap;html=1;strokeWidth=1;fillColor=#DFEAF2;" vertex="1" parent="1">
          <mxGeometry x="690" y="510" width="80" height="80" as="geometry" />
        </mxCell>
        <mxCell id="RnPzxvu8OwdiuVJb5Kx--37" value="&lt;font face=&quot;Cascadia Code&quot; color=&quot;#4d4d4d&quot;&gt;&lt;span style=&quot;font-size: 30px;&quot;&gt;?&lt;/span&gt;&lt;/font&gt;" style="rounded=0;whiteSpace=wrap;html=1;strokeWidth=1;fillColor=#DFEAF2;" vertex="1" parent="1">
          <mxGeometry x="130" y="590" width="80" height="80" as="geometry" />
        </mxCell>
        <mxCell id="RnPzxvu8OwdiuVJb5Kx--38" value="" style="rounded=0;whiteSpace=wrap;html=1;strokeWidth=1;fillColor=#DFEAF2;" vertex="1" parent="1">
          <mxGeometry x="210" y="590" width="80" height="80" as="geometry" />
        </mxCell>
        <mxCell id="RnPzxvu8OwdiuVJb5Kx--39" value="" style="rounded=0;whiteSpace=wrap;html=1;strokeWidth=1;fillColor=#DFEAF2;" vertex="1" parent="1">
          <mxGeometry x="290" y="590" width="80" height="80" as="geometry" />
        </mxCell>
        <mxCell id="RnPzxvu8OwdiuVJb5Kx--40" value="&lt;span style=&quot;color: rgb(77, 77, 77); font-family: &amp;quot;Cascadia Code&amp;quot;; font-size: 30px;&quot;&gt;?&lt;/span&gt;" style="rounded=0;whiteSpace=wrap;html=1;strokeWidth=1;fillColor=#DFEAF2;" vertex="1" parent="1">
          <mxGeometry x="370" y="590" width="80" height="80" as="geometry" />
        </mxCell>
        <mxCell id="RnPzxvu8OwdiuVJb5Kx--41" value="" style="rounded=0;whiteSpace=wrap;html=1;strokeWidth=1;fillColor=#DFEAF2;" vertex="1" parent="1">
          <mxGeometry x="450" y="590" width="80" height="80" as="geometry" />
        </mxCell>
        <mxCell id="RnPzxvu8OwdiuVJb5Kx--42" value="" style="rounded=0;whiteSpace=wrap;html=1;strokeWidth=1;fillColor=#DFEAF2;" vertex="1" parent="1">
          <mxGeometry x="530" y="590" width="80" height="80" as="geometry" />
        </mxCell>
        <mxCell id="RnPzxvu8OwdiuVJb5Kx--43" value="" style="rounded=0;whiteSpace=wrap;html=1;strokeWidth=1;fillColor=#DFEAF2;" vertex="1" parent="1">
          <mxGeometry x="610" y="590" width="80" height="80" as="geometry" />
        </mxCell>
        <mxCell id="RnPzxvu8OwdiuVJb5Kx--44" value="&lt;span style=&quot;color: rgb(77, 77, 77); font-family: &amp;quot;Cascadia Code&amp;quot;; font-size: 30px;&quot;&gt;?&lt;/span&gt;" style="rounded=0;whiteSpace=wrap;html=1;strokeWidth=1;fillColor=#DFEAF2;" vertex="1" parent="1">
          <mxGeometry x="690" y="590" width="80" height="80" as="geometry" />
        </mxCell>
        <mxCell id="RnPzxvu8OwdiuVJb5Kx--46" value="&lt;span style=&quot;color: rgb(77, 77, 77); font-family: &amp;quot;Cascadia Code&amp;quot;; font-size: 30px;&quot;&gt;?&lt;/span&gt;" style="rounded=0;whiteSpace=wrap;html=1;strokeWidth=3;fillColor=#F8CECC;strokeColor=#B85450;" vertex="1" parent="1">
          <mxGeometry x="210" y="270" width="80" height="80" as="geometry" />
        </mxCell>
        <mxCell id="RnPzxvu8OwdiuVJb5Kx--47" value="&lt;span style=&quot;color: rgb(77, 77, 77); font-family: &amp;quot;Cascadia Code&amp;quot;; font-size: 30px;&quot;&gt;?&lt;/span&gt;" style="rounded=0;whiteSpace=wrap;html=1;strokeWidth=3;fillColor=#F8CECC;strokeColor=#B85450;" vertex="1" parent="1">
          <mxGeometry x="450" y="350" width="80" height="80" as="geometry" />
        </mxCell>
        <mxCell id="RnPzxvu8OwdiuVJb5Kx--48" value="&lt;span style=&quot;color: rgb(77, 77, 77); font-family: &amp;quot;Cascadia Code&amp;quot;; font-size: 30px;&quot;&gt;?&lt;/span&gt;" style="rounded=0;whiteSpace=wrap;html=1;strokeWidth=3;fillColor=#F8CECC;strokeColor=#B85450;" vertex="1" parent="1">
          <mxGeometry x="210" y="510" width="80" height="80" as="geometry" />
        </mxCell>
        <mxCell id="RnPzxvu8OwdiuVJb5Kx--49" value="&lt;span style=&quot;color: rgb(77, 77, 77); font-family: &amp;quot;Cascadia Code&amp;quot;; font-size: 30px;&quot;&gt;?&lt;/span&gt;" style="rounded=0;whiteSpace=wrap;html=1;strokeWidth=3;fillColor=#F8CECC;strokeColor=#B85450;" vertex="1" parent="1">
          <mxGeometry x="690" y="350" width="80" height="80" as="geometry" />
        </mxCell>
      </root>
    </mxGraphModel>
  </diagram>
</mxfile>
